<svg xmlns="http://www.w3.org/2000/svg" width="800" height="700" viewBox="0 0 800 700">
  <defs>
    <style>text { font-family: 'Inter', 'Helvetica Neue', Arial, sans-serif; }</style>
  </defs>

  <!-- Background -->
  <rect width="800" height="700" fill="#1B2A4A"/>

  <!-- Title bar -->
  <rect x="0" y="0" width="2" height="40" fill="#F15A22"/>
  <text x="16" y="26" fill="#F15A22" font-size="11" font-weight="600" letter-spacing="3">SPARK</text>
  <text x="784" y="26" fill="#FFFFFF" font-size="16" font-weight="700" text-anchor="end">Analogical Thinking</text>
  <line x1="0" y1="40" x2="800" y2="40" stroke="#2A3656" stroke-width="1"/>

  <!-- Your Challenge -->
  <rect x="16" y="56" width="768" height="56" fill="#1F2E4D" rx="4" stroke="#2A3656" stroke-width="1"/>
  <text x="40" y="80" fill="#F15A22" font-size="11" font-weight="600" letter-spacing="2">YOUR CHALLENGE</text>
  <text x="40" y="100" fill="#FFFFFF" font-size="13">How do we onboard new users quickly without overwhelming them with features?</text>

  <!-- Arrow -->
  <line x1="400" y1="112" x2="400" y2="128" stroke="#2A3656" stroke-width="1"/>

  <!-- Abstracted Pattern -->
  <rect x="16" y="128" width="768" height="56" fill="#1F2E4D" rx="4" stroke="#F15A22" stroke-width="1" stroke-opacity="0.4"/>
  <text x="40" y="152" fill="#F15A22" font-size="11" font-weight="600" letter-spacing="2">ABSTRACTED PATTERN</text>
  <text x="40" y="172" fill="#FFFFFF" font-size="13">Introducing complexity gradually while maintaining engagement and confidence.</text>

  <!-- Arrow -->
  <line x1="400" y1="184" x2="400" y2="200" stroke="#2A3656" stroke-width="1"/>

  <!-- 3 Analogy cards -->
  <!-- Card 1: Medicine -->
  <rect x="16" y="208" width="248" height="224" fill="#1F2E4D" rx="4" stroke="#2A3656" stroke-width="1"/>
  <text x="40" y="236" fill="#FFFFFF" font-size="13" font-weight="700">Medicine</text>
  <line x1="32" y1="248" x2="248" y2="248" stroke="#2A3656" stroke-width="0.5"/>
  <text x="40" y="268" fill="#6B7A8E" font-size="10" letter-spacing="1">THE PARALLEL</text>
  <text x="40" y="288" fill="#C8CED8" font-size="12">Drug dosage titration — start</text>
  <text x="40" y="308" fill="#C8CED8" font-size="12">low, increase as patient adapts.</text>
  <text x="40" y="340" fill="#6B7A8E" font-size="10" letter-spacing="1">TRANSFERABLE MECHANISM</text>
  <text x="40" y="360" fill="#C8CED8" font-size="12">Progressive feature unlocking</text>
  <text x="40" y="380" fill="#C8CED8" font-size="12">based on usage milestones.</text>

  <!-- Card 2: Aviation -->
  <rect x="280" y="208" width="248" height="224" fill="#1F2E4D" rx="4" stroke="#2A3656" stroke-width="1"/>
  <text x="304" y="236" fill="#FFFFFF" font-size="13" font-weight="700">Aviation</text>
  <line x1="296" y1="248" x2="512" y2="248" stroke="#2A3656" stroke-width="0.5"/>
  <text x="304" y="268" fill="#6B7A8E" font-size="10" letter-spacing="1">THE PARALLEL</text>
  <text x="304" y="288" fill="#C8CED8" font-size="12">Pilot training uses simulators</text>
  <text x="304" y="308" fill="#C8CED8" font-size="12">before real cockpit exposure.</text>
  <text x="304" y="340" fill="#6B7A8E" font-size="10" letter-spacing="1">TRANSFERABLE MECHANISM</text>
  <text x="304" y="360" fill="#C8CED8" font-size="12">Sandbox environment with</text>
  <text x="304" y="380" fill="#C8CED8" font-size="12">sample data before going live.</text>

  <!-- Card 3: Nature — SELECTED -->
  <rect x="544" y="208" width="240" height="224" fill="#1F2E4D" rx="4" stroke="#F15A22" stroke-width="1.5"/>
  <text x="568" y="236" fill="#FFFFFF" font-size="13" font-weight="700">Nature</text>
  <line x1="560" y1="248" x2="768" y2="248" stroke="#2A3656" stroke-width="0.5"/>
  <text x="568" y="268" fill="#6B7A8E" font-size="10" letter-spacing="1">THE PARALLEL</text>
  <text x="568" y="288" fill="#C8CED8" font-size="12">Seed germination — only the</text>
  <text x="568" y="308" fill="#C8CED8" font-size="12">right conditions trigger growth.</text>
  <text x="568" y="340" fill="#6B7A8E" font-size="10" letter-spacing="1">TRANSFERABLE MECHANISM</text>
  <text x="568" y="360" fill="#C8CED8" font-size="12">Context-aware feature reveals</text>
  <text x="568" y="380" fill="#C8CED8" font-size="12">triggered by user behaviour.</text>
  <text x="664" y="416" fill="#F15A22" font-size="10" font-weight="600" text-anchor="middle">SELECTED</text>

  <!-- Selected Analogy -->
  <rect x="16" y="456" width="768" height="56" fill="#1F2E4D" rx="4" stroke="#F15A22" stroke-width="1"/>
  <text x="40" y="480" fill="#F15A22" font-size="11" font-weight="600" letter-spacing="2">SELECTED ANALOGY</text>
  <text x="40" y="500" fill="#FFFFFF" font-size="13" font-weight="700">Nature: Seed germination — features emerge only when the user's context is ready for them.</text>

  <!-- Application -->
  <rect x="16" y="528" width="768" height="104" fill="#1F2E4D" rx="4" stroke="#2A3656" stroke-width="1"/>
  <rect x="16" y="528" width="768" height="2" fill="#F15A22"/>
  <text x="40" y="560" fill="#F15A22" font-size="11" font-weight="600" letter-spacing="2">APPLICATION TO YOUR CONTEXT</text>
  <text x="40" y="588" fill="#C8CED8" font-size="13">Build behaviour-triggered feature discovery: when a user completes their 5th project,</text>
  <text x="40" y="612" fill="#C8CED8" font-size="13">reveal templates. When they invite a teammate, unlock collaboration. Growth follows readiness.</text>
</svg>