<svg xmlns="http://www.w3.org/2000/svg" width="800" height="650" viewBox="0 0 800 650">
  <defs>
    <style>
      text { font-family: Arial, sans-serif; }
    </style>
  </defs>

  <!-- Background -->
  <rect width="800" height="650" fill="#1B2A4A" rx="8"/>

  <!-- Title bar -->
  <rect x="0" y="0" width="800" height="56" fill="#1F2E4D" rx="8"/>
  <rect x="0" y="48" width="800" height="8" fill="#1F2E4D"/>
  <rect x="0" y="0" width="3" height="56" fill="#ED3694"/>
  <text x="24" y="36" fill="#ED3694" font-size="13" font-weight="bold" letter-spacing="2">THE TEST</text>
  <text x="120" y="36" fill="#FFFFFF" font-size="18" font-weight="bold">ANALOGICAL THINKING</text>

  <!-- Your Challenge -->
  <rect x="24" y="76" width="752" height="56" fill="#1F2E4D" rx="8" stroke="#2A3656" stroke-width="1"/>
  <text x="44" y="98" fill="#ED3694" font-size="11" font-weight="bold" letter-spacing="1">YOUR CHALLENGE</text>
  <text x="44" y="120" fill="#FFFFFF" font-size="14">How do we onboard new users quickly without overwhelming them with features?</text>

  <!-- Arrow down -->
  <line x1="400" y1="132" x2="400" y2="148" stroke="#2A3656" stroke-width="1.5"/>
  <polygon points="394,146 400,154 406,146" fill="#2A3656"/>

  <!-- Pattern box -->
  <rect x="24" y="156" width="752" height="56" fill="#1F2E4D" rx="8" stroke="#ED3694" stroke-width="1" stroke-opacity="0.5"/>
  <text x="44" y="178" fill="#ED3694" font-size="11" font-weight="bold" letter-spacing="1">ABSTRACTED PATTERN</text>
  <text x="44" y="200" fill="#FFFFFF" font-size="14">Introducing complexity gradually while maintaining engagement and confidence</text>

  <!-- Arrow down -->
  <line x1="400" y1="212" x2="400" y2="228" stroke="#2A3656" stroke-width="1.5"/>
  <polygon points="394,226 400,234 406,226" fill="#2A3656"/>

  <!-- 3 Analogy cards -->
  <!-- Card 1: Medicine -->
  <rect x="24" y="240" width="240" height="200" fill="#1F2E4D" rx="8" stroke="#2A3656" stroke-width="1"/>
  <!-- Icon placeholder: cross -->
  <rect x="100" y="258" width="20" height="6" fill="#ED3694" rx="2"/>
  <rect x="107" y="251" width="6" height="20" fill="#ED3694" rx="2"/>
  <text x="144" y="268" fill="#FFFFFF" font-size="13" font-weight="bold">Medicine</text>
  <line x1="40" y1="280" x2="248" y2="280" stroke="#2A3656" stroke-width="0.5"/>
  <text x="40" y="298" fill="#7A7F8E" font-size="10" letter-spacing="1">THE PARALLEL</text>
  <text x="40" y="316" fill="#B8BCC8" font-size="12">Drug dosage titration — start</text>
  <text x="40" y="332" fill="#B8BCC8" font-size="12">low, increase as patient adapts</text>
  <text x="40" y="358" fill="#7A7F8E" font-size="10" letter-spacing="1">TRANSFERABLE MECHANISM</text>
  <text x="40" y="376" fill="#B8BCC8" font-size="12">Progressive feature unlocking</text>
  <text x="40" y="392" fill="#B8BCC8" font-size="12">based on usage milestones</text>

  <!-- Card 2: Aviation -->
  <rect x="280" y="240" width="240" height="200" fill="#1F2E4D" rx="8" stroke="#2A3656" stroke-width="1"/>
  <!-- Icon placeholder: plane wing -->
  <path d="M356,260 L376,254 L380,260 L360,264Z" fill="#ED3694"/>
  <text x="394" y="268" fill="#FFFFFF" font-size="13" font-weight="bold">Aviation</text>
  <line x1="296" y1="280" x2="504" y2="280" stroke="#2A3656" stroke-width="0.5"/>
  <text x="296" y="298" fill="#7A7F8E" font-size="10" letter-spacing="1">THE PARALLEL</text>
  <text x="296" y="316" fill="#B8BCC8" font-size="12">Pilot training uses simulators</text>
  <text x="296" y="332" fill="#B8BCC8" font-size="12">before real cockpit exposure</text>
  <text x="296" y="358" fill="#7A7F8E" font-size="10" letter-spacing="1">TRANSFERABLE MECHANISM</text>
  <text x="296" y="376" fill="#B8BCC8" font-size="12">Sandbox environment with</text>
  <text x="296" y="392" fill="#B8BCC8" font-size="12">sample data before going live</text>

  <!-- Card 3: Nature — SELECTED -->
  <rect x="536" y="240" width="240" height="200" fill="#1F2E4D" rx="8" stroke="#ED3694" stroke-width="2"/>
  <!-- Icon placeholder: leaf -->
  <path d="M612,256 C620,248 636,252 636,264 C636,272 628,278 620,278 C612,278 612,268 612,256Z" fill="none" stroke="#ED3694" stroke-width="1.5"/>
  <text x="650" y="268" fill="#FFFFFF" font-size="13" font-weight="bold">Nature</text>
  <line x1="552" y1="280" x2="760" y2="280" stroke="#2A3656" stroke-width="0.5"/>
  <text x="552" y="298" fill="#7A7F8E" font-size="10" letter-spacing="1">THE PARALLEL</text>
  <text x="552" y="316" fill="#B8BCC8" font-size="12">Seed germination — only the</text>
  <text x="552" y="332" fill="#B8BCC8" font-size="12">right conditions trigger growth</text>
  <text x="552" y="358" fill="#7A7F8E" font-size="10" letter-spacing="1">TRANSFERABLE MECHANISM</text>
  <text x="552" y="376" fill="#B8BCC8" font-size="12">Context-aware feature reveals</text>
  <text x="552" y="392" fill="#B8BCC8" font-size="12">triggered by user behaviour</text>
  <!-- Selected badge -->
  <rect x="620" y="420" width="76" height="16" fill="#ED3694" fill-opacity="0.2" rx="4"/>
  <text x="658" y="432" fill="#ED3694" font-size="9" font-weight="bold" text-anchor="middle">SELECTED</text>

  <!-- Arrow down from selected -->
  <line x1="656" y1="440" x2="400" y2="470" stroke="#ED3694" stroke-width="1.5" stroke-dasharray="4,3"/>
  <polygon points="394,468 400,476 406,468" fill="#ED3694"/>

  <!-- Selected Analogy + Application -->
  <rect x="24" y="478" width="752" height="56" fill="#1F2E4D" rx="8" stroke="#ED3694" stroke-width="1.5"/>
  <text x="44" y="500" fill="#ED3694" font-size="11" font-weight="bold" letter-spacing="1">SELECTED ANALOGY</text>
  <text x="44" y="522" fill="#FFFFFF" font-size="13" font-weight="bold">Nature: Seed germination — features emerge only when the user's context is ready for them</text>

  <!-- Application box -->
  <rect x="24" y="550" width="752" height="78" fill="#1F2E4D" rx="8" stroke="#2A3656" stroke-width="1"/>
  <rect x="24" y="550" width="752" height="3" fill="#ED3694"/>
  <text x="44" y="576" fill="#ED3694" font-size="11" font-weight="bold" letter-spacing="1">APPLICATION TO YOUR CONTEXT</text>
  <text x="44" y="598" fill="#B8BCC8" font-size="13">Build behaviour-triggered feature discovery: when a user completes their 5th project, reveal</text>
  <text x="44" y="616" fill="#B8BCC8" font-size="13">templates. When they invite a teammate, unlock collaboration tools. Growth follows readiness.</text>
</svg>