<svg xmlns="http://www.w3.org/2000/svg" width="800" height="700" viewBox="0 0 800 700">
  <defs>
    <style>
      text { font-family: Arial, sans-serif; }
    </style>
  </defs>

  <!-- Background -->
  <rect width="800" height="700" fill="#1B2A4A" rx="8"/>

  <!-- Title bar -->
  <rect x="0" y="0" width="800" height="56" fill="#1F2E4D" rx="8"/>
  <rect x="0" y="48" width="800" height="8" fill="#1F2E4D"/>
  <rect x="0" y="0" width="3" height="56" fill="#27BDBE"/>
  <text x="24" y="36" fill="#27BDBE" font-size="13" font-weight="bold" letter-spacing="2">THE UNTANGLE</text>
  <text x="180" y="36" fill="#FFFFFF" font-size="18" font-weight="bold">EMPATHY MAP</text>

  <!-- Center circle -->
  <circle cx="400" cy="320" r="52" fill="#1F2E4D" stroke="#27BDBE" stroke-width="2"/>
  <text x="400" y="312" fill="#27BDBE" font-size="10" font-weight="bold" letter-spacing="1" text-anchor="middle">USER</text>
  <text x="400" y="332" fill="#FFFFFF" font-size="13" font-weight="bold" text-anchor="middle">Early-stage</text>
  <text x="400" y="348" fill="#FFFFFF" font-size="13" font-weight="bold" text-anchor="middle">Founder</text>

  <!-- Top-left: SAYS -->
  <rect x="24" y="76" width="360" height="200" fill="#1F2E4D" rx="8" stroke="#2A3656" stroke-width="1"/>
  <text x="44" y="102" fill="#27BDBE" font-size="12" font-weight="bold" letter-spacing="1">SAYS</text>
  <!-- Speech bubble hint -->
  <circle cx="92" cy="97" r="8" fill="none" stroke="#2A3656" stroke-width="1"/>
  <text x="92" y="101" fill="#7A7F8E" font-size="10" text-anchor="middle">"</text>
  <text x="44" y="130" fill="#B8BCC8" font-size="12">"I just need to find product-market fit"</text>
  <text x="44" y="152" fill="#B8BCC8" font-size="12">"My co-founder and I disagree on priorities"</text>
  <text x="44" y="174" fill="#B8BCC8" font-size="12">"We're running out of runway"</text>
  <text x="44" y="196" fill="#B8BCC8" font-size="12">"I've pivoted twice already"</text>

  <!-- Top-right: THINKS -->
  <rect x="416" y="76" width="360" height="200" fill="#1F2E4D" rx="8" stroke="#2A3656" stroke-width="1"/>
  <text x="436" y="102" fill="#27BDBE" font-size="12" font-weight="bold" letter-spacing="1">THINKS</text>
  <!-- Thought bubble hint -->
  <circle cx="502" cy="97" r="8" fill="none" stroke="#2A3656" stroke-width="1"/>
  <circle cx="498" cy="106" r="3" fill="none" stroke="#2A3656" stroke-width="1"/>
  <text x="436" y="130" fill="#B8BCC8" font-size="12">Am I even solving the right problem?</text>
  <text x="436" y="152" fill="#B8BCC8" font-size="12">Other founders seem more confident than me</text>
  <text x="436" y="174" fill="#B8BCC8" font-size="12">What if I'm wasting everyone's time?</text>
  <text x="436" y="196" fill="#B8BCC8" font-size="12">I need a framework to make sense of this</text>

  <!-- Bottom-left: DOES -->
  <rect x="24" y="364" width="360" height="200" fill="#1F2E4D" rx="8" stroke="#2A3656" stroke-width="1"/>
  <text x="44" y="390" fill="#27BDBE" font-size="12" font-weight="bold" letter-spacing="1">DOES</text>
  <!-- Action hint -->
  <path d="M92,380 L100,388 L108,380" fill="none" stroke="#2A3656" stroke-width="1.5"/>
  <text x="44" y="418" fill="#B8BCC8" font-size="12">Talks to 2-3 customers per week</text>
  <text x="44" y="440" fill="#B8BCC8" font-size="12">Reads startup blogs late at night</text>
  <text x="44" y="462" fill="#B8BCC8" font-size="12">Attends networking events seeking mentors</text>
  <text x="44" y="484" fill="#B8BCC8" font-size="12">Iterates on pitch deck constantly</text>

  <!-- Bottom-right: FEELS -->
  <rect x="416" y="364" width="360" height="200" fill="#1F2E4D" rx="8" stroke="#2A3656" stroke-width="1"/>
  <text x="436" y="390" fill="#27BDBE" font-size="12" font-weight="bold" letter-spacing="1">FEELS</text>
  <!-- Heart hint -->
  <path d="M498,382 C498,378 504,375 507,380 C510,375 516,378 516,382 C516,388 507,394 507,394 C507,394 498,388 498,382Z" fill="none" stroke="#2A3656" stroke-width="1"/>
  <text x="436" y="418" fill="#B8BCC8" font-size="12">Excited but overwhelmed</text>
  <text x="436" y="440" fill="#B8BCC8" font-size="12">Isolated from peers who understand</text>
  <text x="436" y="462" fill="#B8BCC8" font-size="12">Anxious about letting the team down</text>
  <text x="436" y="484" fill="#B8BCC8" font-size="12">Determined to make this work</text>

  <!-- Key Insight strip -->
  <rect x="24" y="588" width="752" height="88" fill="#1F2E4D" rx="8" stroke="#2A3656" stroke-width="1"/>
  <rect x="24" y="588" width="3" height="88" fill="#27BDBE"/>
  <text x="44" y="616" fill="#27BDBE" font-size="12" font-weight="bold" letter-spacing="1">KEY INSIGHT</text>
  <text x="44" y="644" fill="#FFFFFF" font-size="14">This founder publicly projects confidence but privately questions whether they're solving the</text>
  <text x="44" y="664" fill="#FFFFFF" font-size="14">right problem. They need structured validation, not more advice.</text>
</svg>