<svg xmlns="http://www.w3.org/2000/svg" width="800" height="700" viewBox="0 0 800 700">
  <defs>
    <style>text { font-family: Arial, sans-serif; }</style>
    <marker id="arrow" markerWidth="10" markerHeight="7" refX="9" refY="3.5" orient="auto" markerUnits="strokeWidth">
      <polygon points="0 0, 10 3.5, 0 7" fill="#E4E517"/>
    </marker>
    <marker id="arrow-dashed" markerWidth="10" markerHeight="7" refX="9" refY="3.5" orient="auto" markerUnits="strokeWidth">
      <polygon points="0 0, 10 3.5, 0 7" fill="#E4E517" opacity="0.3"/>
    </marker>
  </defs>

  <!-- Background -->
  <rect width="800" height="700" fill="#1B2A4A" rx="8"/>

  <!-- Title bar -->
  <rect x="0" y="0" width="800" height="56" fill="#1F2E4D" rx="8"/>
  <rect x="0" y="48" width="800" height="8" fill="#1F2E4D"/>
  <rect x="0" y="0" width="3" height="56" fill="#E4E517"/>
  <text x="24" y="36" fill="#E4E517" font-size="13" font-weight="bold" letter-spacing="2">THE BUILD</text>
  <text x="130" y="36" fill="#FFFFFF" font-size="18" font-weight="bold">FLYWHEEL</text>

  <!-- Subtitle -->
  <text x="400" y="86" text-anchor="middle" font-size="11" fill="#7A7F8E">Media Company Growth Loop</text>

  <!-- Component 1: Great Content (top) -->
  <rect x="310" y="106" width="180" height="56" rx="8" fill="#1F2E4D" stroke="#2A3656" stroke-width="1.5"/>
  <text x="400" y="130" text-anchor="middle" font-size="14" font-weight="bold" fill="#FFFFFF">Great Content</text>
  <text x="400" y="148" text-anchor="middle" font-size="10" fill="#7A7F8E">Quality drives discovery</text>

  <!-- Component 2: Audience Growth (right) -->
  <rect x="555" y="258" width="180" height="56" rx="8" fill="#1F2E4D" stroke="#2A3656" stroke-width="1.5"/>
  <text x="645" y="282" text-anchor="middle" font-size="14" font-weight="bold" fill="#FFFFFF">Audience Growth</text>
  <text x="645" y="300" text-anchor="middle" font-size="10" fill="#7A7F8E">Organic reach expands</text>

  <!-- Component 3: Advertiser Demand (bottom) -->
  <rect x="310" y="410" width="180" height="56" rx="8" fill="#1F2E4D" stroke="#2A3656" stroke-width="1.5"/>
  <text x="400" y="434" text-anchor="middle" font-size="14" font-weight="bold" fill="#FFFFFF">Advertiser Demand</text>
  <text x="400" y="452" text-anchor="middle" font-size="10" fill="#7A7F8E">Brands want access</text>

  <!-- Component 4: Revenue for Reinvestment (left) -->
  <rect x="65" y="258" width="180" height="56" rx="8" fill="#1F2E4D" stroke="#2A3656" stroke-width="1.5"/>
  <text x="155" y="282" text-anchor="middle" font-size="14" font-weight="bold" fill="#FFFFFF">Revenue</text>
  <text x="155" y="300" text-anchor="middle" font-size="10" fill="#7A7F8E">Funds content investment</text>

  <!-- Arrow 1: Great Content -> Audience Growth (top-right arc) -->
  <path d="M 490 146 Q 560 166 570 258" fill="none" stroke="#E4E517" stroke-width="2" marker-end="url(#arrow)"/>
  <!-- Strength label: STRONG (full opacity) -->
  <rect x="510" y="180" width="68" height="20" rx="10" fill="rgba(228,229,23,0.15)"/>
  <text x="544" y="194" text-anchor="middle" font-size="9" font-weight="bold" fill="#E4E517">STRONG</text>

  <!-- Arrow 2: Audience Growth -> Advertiser Demand (right-bottom arc) — BOTTLENECK -->
  <path d="M 620 314 Q 580 376 490 426" fill="none" stroke="#E4E517" stroke-width="2" stroke-opacity="0.3" stroke-dasharray="8,4" marker-end="url(#arrow-dashed)"/>
  <!-- Strength label: UNPROVEN (0.3 opacity) -->
  <rect x="540" y="360" width="82" height="20" rx="10" fill="rgba(228,229,23,0.1)"/>
  <text x="581" y="374" text-anchor="middle" font-size="9" font-weight="bold" fill="#E4E517" opacity="0.3">UNPROVEN</text>

  <!-- Arrow 3: Advertiser Demand -> Revenue (bottom-left arc) -->
  <path d="M 310 451 Q 240 466 230 314" fill="none" stroke="#E4E517" stroke-width="2" stroke-opacity="0.6" marker-end="url(#arrow)"/>
  <!-- Strength label: DEVELOPING (0.6 opacity) -->
  <rect x="232" y="390" width="96" height="20" rx="10" fill="rgba(228,229,23,0.1)"/>
  <text x="280" y="404" text-anchor="middle" font-size="9" font-weight="bold" fill="#E4E517" opacity="0.6">DEVELOPING</text>

  <!-- Arrow 4: Revenue -> Great Content (left-top arc) -->
  <path d="M 180 258 Q 210 186 310 151" fill="none" stroke="#E4E517" stroke-width="2" marker-end="url(#arrow)"/>
  <!-- Strength label: STRONG (full opacity) -->
  <rect x="198" y="184" width="68" height="20" rx="10" fill="rgba(228,229,23,0.15)"/>
  <text x="232" y="198" text-anchor="middle" font-size="9" font-weight="bold" fill="#E4E517">STRONG</text>

  <!-- Center flywheel icon -->
  <circle cx="400" cy="286" r="28" fill="none" stroke="#E4E517" stroke-width="1.5" opacity="0.3"/>
  <path d="M 392 274 L 408 286 L 392 298 Z" fill="#E4E517" opacity="0.4"/>

  <!-- Bottleneck callout box -->
  <rect x="80" y="510" width="300" height="80" rx="8" fill="#1F2E4D" stroke="#E4E517" stroke-width="2" stroke-dasharray="6,3"/>
  <text x="100" y="534" font-size="10" font-weight="bold" fill="#E4E517" letter-spacing="1">BOTTLENECK</text>
  <text x="100" y="554" font-size="13" font-weight="bold" fill="#FFFFFF">Audience Growth &#x2192; Advertiser Demand</text>
  <text x="100" y="574" font-size="11" fill="#7A7F8E">No evidence audience size drives ad spend</text>

  <!-- Acceleration action box -->
  <rect x="420" y="510" width="300" height="80" rx="8" fill="#1F2E4D" stroke="#E4E517" stroke-width="2"/>
  <text x="440" y="534" font-size="10" font-weight="bold" fill="#E4E517" letter-spacing="1">ACCELERATION ACTION</text>
  <text x="440" y="554" font-size="13" font-weight="bold" fill="#FFFFFF">Run 3 sponsored content tests</text>
  <text x="440" y="574" font-size="11" fill="#7A7F8E">Prove advertiser demand correlates with reach</text>

  <!-- Legend -->
  <rect x="220" y="630" width="360" height="44" rx="8" fill="#1F2E4D" stroke="#2A3656" stroke-width="1"/>
  <circle cx="252" cy="652" r="5" fill="#E4E517"/>
  <text x="264" y="656" font-size="10" fill="#7A7F8E">Strong</text>
  <circle cx="330" cy="652" r="5" fill="#E4E517" opacity="0.6"/>
  <text x="342" y="656" font-size="10" fill="#7A7F8E">Developing</text>
  <circle cx="428" cy="652" r="5" fill="#E4E517" opacity="0.3"/>
  <text x="440" y="656" font-size="10" fill="#7A7F8E">Unproven</text>
  <line x1="500" y1="652" x2="520" y2="652" stroke="#E4E517" stroke-width="3" stroke-dasharray="6,3" opacity="0.3"/>
  <text x="528" y="656" font-size="10" fill="#7A7F8E">Bottleneck</text>
</svg>