<svg xmlns="http://www.w3.org/2000/svg" width="800" height="700" viewBox="0 0 800 700">
  <defs>
    <style>text { font-family: 'Inter', 'Helvetica Neue', Arial, sans-serif; }</style>
    <marker id="fw-arrow" markerWidth="8" markerHeight="6" refX="7" refY="3" orient="auto">
      <polygon points="0 0, 8 3, 0 6" fill="#E4E517"/>
    </marker>
    <marker id="fw-arrow-dim" markerWidth="8" markerHeight="6" refX="7" refY="3" orient="auto">
      <polygon points="0 0, 8 3, 0 6" fill="#E4E517" opacity="0.3"/>
    </marker>
  </defs>

  <!-- Background -->
  <rect width="800" height="700" fill="#1B2A4A"/>

  <!-- Title bar -->
  <rect x="0" y="0" width="2" height="40" fill="#E4E517"/>
  <text x="16" y="26" fill="#E4E517" font-size="11" font-weight="600" letter-spacing="3">BUILD</text>
  <text x="784" y="26" fill="#FFFFFF" font-size="16" font-weight="700" text-anchor="end">Flywheel</text>
  <line x1="0" y1="40" x2="800" y2="40" stroke="#2A3656" stroke-width="1"/>

  <!-- Subtitle -->
  <text x="400" y="68" text-anchor="middle" font-size="11" fill="#6B7A8E">Media Company Growth Loop</text>

  <!-- Component 1: Great Content (top) -->
  <rect x="312" y="88" width="176" height="56" rx="4" fill="#1F2E4D" stroke="#2A3656" stroke-width="1"/>
  <text x="400" y="112" text-anchor="middle" font-size="13" font-weight="700" fill="#FFFFFF">Great Content</text>
  <text x="400" y="132" text-anchor="middle" font-size="10" fill="#6B7A8E">Quality drives discovery</text>

  <!-- Component 2: Audience Growth (right) -->
  <rect x="552" y="240" width="176" height="56" rx="4" fill="#1F2E4D" stroke="#2A3656" stroke-width="1"/>
  <text x="640" y="264" text-anchor="middle" font-size="13" font-weight="700" fill="#FFFFFF">Audience Growth</text>
  <text x="640" y="284" text-anchor="middle" font-size="10" fill="#6B7A8E">Organic reach expands</text>

  <!-- Component 3: Advertiser Demand (bottom) -->
  <rect x="312" y="392" width="176" height="56" rx="4" fill="#1F2E4D" stroke="#2A3656" stroke-width="1"/>
  <text x="400" y="416" text-anchor="middle" font-size="13" font-weight="700" fill="#FFFFFF">Advertiser Demand</text>
  <text x="400" y="436" text-anchor="middle" font-size="10" fill="#6B7A8E">Brands want access</text>

  <!-- Component 4: Revenue (left) -->
  <rect x="72" y="240" width="176" height="56" rx="4" fill="#1F2E4D" stroke="#2A3656" stroke-width="1"/>
  <text x="160" y="264" text-anchor="middle" font-size="13" font-weight="700" fill="#FFFFFF">Revenue</text>
  <text x="160" y="284" text-anchor="middle" font-size="10" fill="#6B7A8E">Funds content investment</text>

  <!-- Arrow 1: Content -> Audience (top-right) -->
  <path d="M 488 128 Q 552 160 564 240" fill="none" stroke="#E4E517" stroke-width="1.5" marker-end="url(#fw-arrow)"/>
  <text x="536" y="184" text-anchor="middle" font-size="10" font-weight="600" fill="#E4E517">STRONG</text>

  <!-- Arrow 2: Audience -> Advertiser (right-bottom) — BOTTLENECK -->
  <path d="M 616 296 Q 576 356 488 408" fill="none" stroke="#E4E517" stroke-width="1.5" stroke-opacity="0.3" stroke-dasharray="6,4" marker-end="url(#fw-arrow-dim)"/>
  <text x="572" y="360" text-anchor="middle" font-size="10" font-weight="600" fill="#E4E517" opacity="0.3">UNPROVEN</text>

  <!-- Arrow 3: Advertiser -> Revenue (bottom-left) -->
  <path d="M 312 432 Q 248 448 236 296" fill="none" stroke="#E4E517" stroke-width="1.5" stroke-opacity="0.6" marker-end="url(#fw-arrow)"/>
  <text x="264" y="384" text-anchor="middle" font-size="10" font-weight="600" fill="#E4E517" opacity="0.6">DEVELOPING</text>

  <!-- Arrow 4: Revenue -> Content (left-top) -->
  <path d="M 184 240 Q 216 168 312 136" fill="none" stroke="#E4E517" stroke-width="1.5" marker-end="url(#fw-arrow)"/>
  <text x="232" y="184" text-anchor="middle" font-size="10" font-weight="600" fill="#E4E517">STRONG</text>

  <!-- Bottleneck callout -->
  <rect x="16" y="480" width="376" height="88" rx="4" fill="#1F2E4D" stroke="#E4E517" stroke-width="1" stroke-dasharray="6,3"/>
  <text x="40" y="504" font-size="11" font-weight="600" fill="#E4E517" letter-spacing="2">BOTTLENECK</text>
  <text x="40" y="528" font-size="13" font-weight="700" fill="#FFFFFF">Audience Growth to Advertiser Demand</text>
  <text x="40" y="552" font-size="11" fill="#6B7A8E">No evidence audience size drives ad spend.</text>

  <!-- Acceleration action -->
  <rect x="408" y="480" width="376" height="88" rx="4" fill="#1F2E4D" stroke="#E4E517" stroke-width="1.5"/>
  <text x="432" y="504" font-size="11" font-weight="600" fill="#E4E517" letter-spacing="2">ACCELERATION ACTION</text>
  <text x="432" y="528" font-size="13" font-weight="700" fill="#FFFFFF">Run 3 sponsored content tests.</text>
  <text x="432" y="552" font-size="11" fill="#6B7A8E">Prove advertiser demand correlates with reach.</text>

  <!-- Legend -->
  <rect x="176" y="592" width="448" height="40" rx="4" fill="#1F2E4D" stroke="#2A3656" stroke-width="1"/>
  <circle cx="208" cy="612" r="4" fill="#E4E517"/>
  <text x="220" y="616" font-size="10" fill="#6B7A8E">Strong</text>
  <circle cx="288" cy="612" r="4" fill="#E4E517" opacity="0.6"/>
  <text x="300" y="616" font-size="10" fill="#6B7A8E">Developing</text>
  <circle cx="392" cy="612" r="4" fill="#E4E517" opacity="0.3"/>
  <text x="404" y="616" font-size="10" fill="#6B7A8E">Unproven</text>
  <line x1="472" y1="612" x2="496" y2="612" stroke="#E4E517" stroke-width="2" stroke-dasharray="4,3" opacity="0.3"/>
  <text x="504" y="616" font-size="10" fill="#6B7A8E">Bottleneck</text>
</svg>