<svg xmlns="http://www.w3.org/2000/svg" width="800" height="700" viewBox="0 0 800 700">
  <defs>
    <style>text { font-family: Arial, sans-serif; }</style>
    <linearGradient id="waterGrad" x1="0" y1="0" x2="0" y2="1">
      <stop offset="0%" stop-color="#1B2A4A" stop-opacity="0"/>
      <stop offset="100%" stop-color="#0D1A2F" stop-opacity="0.6"/>
    </linearGradient>
  </defs>

  <!-- Background -->
  <rect width="800" height="700" fill="#1B2A4A" rx="8"/>

  <!-- Title bar -->
  <rect x="0" y="0" width="800" height="56" fill="#1F2E4D" rx="8"/>
  <rect x="0" y="48" width="800" height="8" fill="#1F2E4D"/>
  <rect x="0" y="0" width="3" height="56" fill="#27BDBE"/>
  <text x="24" y="36" fill="#27BDBE" font-size="13" font-weight="bold" letter-spacing="2">THE UNTANGLE</text>
  <text x="180" y="36" fill="#FFFFFF" font-size="18" font-weight="bold">THE ICEBERG</text>

  <!-- Subtitle -->
  <text x="400" y="82" text-anchor="middle" font-size="11" fill="#7A7F8E">Engineer Retention Example</text>

  <!-- Waterline -->
  <line x1="60" y1="196" x2="740" y2="196" stroke="#27BDBE" stroke-width="1.5" stroke-dasharray="8,4" opacity="0.6"/>
  <text x="745" y="193" font-size="10" fill="#27BDBE" opacity="0.7" text-anchor="end">WATERLINE</text>

  <!-- Water gradient below waterline -->
  <rect x="0" y="196" width="800" height="504" fill="url(#waterGrad)"/>

  <!-- LAYER 1: EVENT (above water) -->
  <rect x="260" y="106" width="280" height="72" rx="8" fill="#1F2E4D" stroke="#2A3656" stroke-width="1.5"/>
  <text x="400" y="126" text-anchor="middle" font-size="11" font-weight="bold" fill="#27BDBE" letter-spacing="1">EVENT</text>
  <text x="400" y="144" text-anchor="middle" font-size="12" fill="#FFFFFF">"What happened?"</text>
  <text x="400" y="164" text-anchor="middle" font-size="11" fill="#B8BCC8">3rd senior engineer left in 2 years</text>

  <!-- Arrow 1-2 -->
  <line x1="400" y1="178" x2="400" y2="222" stroke="#27BDBE" stroke-width="1.5" opacity="0.5"/>
  <polygon points="394,218 400,228 406,218" fill="#27BDBE" opacity="0.5"/>

  <!-- LAYER 2: PATTERNS -->
  <rect x="210" y="232" width="380" height="88" rx="8" fill="#1F2E4D" stroke="#2A3656" stroke-width="1.5"/>
  <text x="400" y="254" text-anchor="middle" font-size="11" font-weight="bold" fill="#27BDBE" letter-spacing="1">PATTERNS</text>
  <text x="400" y="274" text-anchor="middle" font-size="12" fill="#FFFFFF">"What keeps happening?"</text>
  <text x="400" y="294" text-anchor="middle" font-size="11" fill="#B8BCC8">Each left within 6 months — same arc:</text>
  <text x="400" y="308" text-anchor="middle" font-size="11" fill="#B8BCC8">energy &#x2192; frustration &#x2192; resignation</text>

  <!-- Arrow 2-3 -->
  <line x1="400" y1="320" x2="400" y2="364" stroke="#27BDBE" stroke-width="1.5" opacity="0.5"/>
  <polygon points="394,360 400,370 406,360" fill="#27BDBE" opacity="0.5"/>

  <!-- LAYER 3: STRUCTURES -->
  <rect x="160" y="374" width="480" height="88" rx="8" fill="#1F2E4D" stroke="#2A3656" stroke-width="1.5"/>
  <text x="400" y="396" text-anchor="middle" font-size="11" font-weight="bold" fill="#27BDBE" letter-spacing="1">STRUCTURES</text>
  <text x="400" y="416" text-anchor="middle" font-size="12" fill="#FFFFFF">"What in the system causes this?"</text>
  <text x="400" y="436" text-anchor="middle" font-size="11" fill="#B8BCC8">No onboarding, no career ladder,</text>
  <text x="400" y="450" text-anchor="middle" font-size="11" fill="#B8BCC8">all decisions flow through founder</text>

  <!-- Arrow 3-4 -->
  <line x1="400" y1="462" x2="400" y2="506" stroke="#27BDBE" stroke-width="1.5" opacity="0.5"/>
  <polygon points="394,502 400,512 406,502" fill="#27BDBE" opacity="0.5"/>

  <!-- LAYER 4: MENTAL MODELS -->
  <rect x="110" y="516" width="580" height="88" rx="8" fill="#1F2E4D" stroke="#2A3656" stroke-width="1.5"/>
  <text x="400" y="538" text-anchor="middle" font-size="11" font-weight="bold" fill="#27BDBE" letter-spacing="1">MENTAL MODELS</text>
  <text x="400" y="558" text-anchor="middle" font-size="12" fill="#FFFFFF">"What belief holds this in place?"</text>
  <text x="400" y="578" text-anchor="middle" font-size="11" fill="#B8BCC8">"Great engineers don't need structure —</text>
  <text x="400" y="592" text-anchor="middle" font-size="11" fill="#B8BCC8">if they're good enough, they'll thrive."</text>

  <!-- Arrow 4-Leverage -->
  <line x1="400" y1="604" x2="400" y2="628" stroke="#27BDBE" stroke-width="1.5" opacity="0.5"/>
  <polygon points="394,624 400,634 406,624" fill="#27BDBE" opacity="0.5"/>

  <!-- LEVERAGE POINT callout -->
  <rect x="160" y="638" width="480" height="42" rx="8" fill="rgba(39,189,190,0.12)" stroke="#27BDBE" stroke-width="2"/>
  <text x="400" y="656" text-anchor="middle" font-size="11" font-weight="bold" fill="#27BDBE" letter-spacing="1">LEVERAGE POINT</text>
  <text x="400" y="672" text-anchor="middle" font-size="12" fill="#FFFFFF">Change the mental model. Structure lets talent do their best work.</text>

  <!-- Depth labels on left -->
  <text x="50" y="146" font-size="10" fill="#7A7F8E" text-anchor="middle">VISIBLE</text>
  <text x="50" y="396" font-size="10" fill="#7A7F8E" text-anchor="middle">HIDDEN</text>
  <text x="50" y="566" font-size="10" fill="#7A7F8E" text-anchor="middle">DEEPEST</text>

  <!-- Depth arrow on left side -->
  <line x1="50" y1="161" x2="50" y2="575" stroke="#7A7F8E" stroke-width="1" opacity="0.4"/>
  <polygon points="44,570 50,582 56,570" fill="#7A7F8E" opacity="0.4"/>
</svg>