<svg xmlns="http://www.w3.org/2000/svg" width="800" height="700" viewBox="0 0 800 700">
  <defs>
    <style>
      text { font-family: Arial, sans-serif; }
    </style>
  </defs>

  <!-- Background -->
  <rect width="800" height="700" fill="#1B2A4A" rx="8"/>

  <!-- Title bar -->
  <rect x="0" y="0" width="800" height="56" fill="#1F2E4D" rx="8"/>
  <rect x="0" y="48" width="800" height="8" fill="#1F2E4D"/>
  <rect x="0" y="0" width="3" height="56" fill="#ED3694"/>
  <text x="24" y="36" fill="#ED3694" font-size="13" font-weight="bold" letter-spacing="2">THE TEST</text>
  <text x="120" y="36" fill="#FFFFFF" font-size="18" font-weight="bold">PRE-MORTEM</text>

  <!-- Opening statement -->
  <rect x="24" y="76" width="752" height="44" fill="#1F2E4D" rx="8" stroke="#ED3694" stroke-width="1" stroke-opacity="0.4"/>
  <text x="400" y="104" fill="#ED3694" font-size="13" font-style="italic" text-anchor="middle">It's 12 months from now. The project failed. What went wrong?</text>

  <!-- Risk Grid: 3 columns x 2 rows -->
  <!-- Row 1 -->
  <!-- Market Risk -->
  <rect x="24" y="138" width="244" height="150" fill="#1F2E4D" rx="8" stroke="#2A3656" stroke-width="1"/>
  <text x="44" y="162" fill="#ED3694" font-size="12" font-weight="bold" letter-spacing="1">MARKET RISK</text>
  <text x="44" y="184" fill="#B8BCC8" font-size="12">Target market too small to sustain growth</text>
  <text x="44" y="204" fill="#B8BCC8" font-size="12">Customer needs shifted post-launch</text>
  <text x="44" y="224" fill="#B8BCC8" font-size="12">Regulatory changes blocked distribution</text>

  <!-- Product Risk -->
  <rect x="278" y="138" width="244" height="150" fill="#1F2E4D" rx="8" stroke="#2A3656" stroke-width="1"/>
  <text x="298" y="162" fill="#ED3694" font-size="12" font-weight="bold" letter-spacing="1">PRODUCT RISK</text>
  <text x="298" y="184" fill="#B8BCC8" font-size="12">Core feature didn't solve the real pain</text>
  <text x="298" y="204" fill="#B8BCC8" font-size="12">Technical debt slowed iteration speed</text>
  <text x="298" y="224" fill="#B8BCC8" font-size="12">UX too complex for non-technical users</text>

  <!-- Team Risk -->
  <rect x="532" y="138" width="244" height="150" fill="#1F2E4D" rx="8" stroke="#2A3656" stroke-width="1"/>
  <text x="552" y="162" fill="#ED3694" font-size="12" font-weight="bold" letter-spacing="1">TEAM RISK</text>
  <text x="552" y="184" fill="#B8BCC8" font-size="12">Co-founder disagreement on direction</text>
  <text x="552" y="204" fill="#B8BCC8" font-size="12">Key engineer left before V2 launch</text>
  <text x="552" y="224" fill="#B8BCC8" font-size="12">Founder burnout from wearing all hats</text>

  <!-- Row 2 -->
  <!-- Financial Risk -->
  <rect x="24" y="300" width="244" height="150" fill="#1F2E4D" rx="8" stroke="#2A3656" stroke-width="1"/>
  <text x="44" y="324" fill="#ED3694" font-size="12" font-weight="bold" letter-spacing="1">FINANCIAL RISK</text>
  <text x="44" y="346" fill="#B8BCC8" font-size="12">Runway ran out before revenue kicked in</text>
  <text x="44" y="366" fill="#B8BCC8" font-size="12">CAC was 3x higher than projected</text>
  <text x="44" y="386" fill="#B8BCC8" font-size="12">Failed to close Series A in time</text>

  <!-- Competition Risk -->
  <rect x="278" y="300" width="244" height="150" fill="#1F2E4D" rx="8" stroke="#2A3656" stroke-width="1"/>
  <text x="298" y="324" fill="#ED3694" font-size="12" font-weight="bold" letter-spacing="1">COMPETITION RISK</text>
  <text x="298" y="346" fill="#B8BCC8" font-size="12">Incumbent launched similar feature set</text>
  <text x="298" y="366" fill="#B8BCC8" font-size="12">Better-funded competitor copied model</text>
  <text x="298" y="386" fill="#B8BCC8" font-size="12">Open-source alternative emerged</text>

  <!-- Timing Risk -->
  <rect x="532" y="300" width="244" height="150" fill="#1F2E4D" rx="8" stroke="#2A3656" stroke-width="1"/>
  <text x="552" y="324" fill="#ED3694" font-size="12" font-weight="bold" letter-spacing="1">TIMING RISK</text>
  <text x="552" y="346" fill="#B8BCC8" font-size="12">Market wasn't ready for the solution yet</text>
  <text x="552" y="366" fill="#B8BCC8" font-size="12">Launched during economic downturn</text>
  <text x="552" y="386" fill="#B8BCC8" font-size="12">Development took 6 months too long</text>

  <!-- Top 3 Mitigations table -->
  <rect x="24" y="474" width="752" height="204" fill="#1F2E4D" rx="8" stroke="#2A3656" stroke-width="1"/>
  <rect x="24" y="474" width="752" height="3" fill="#ED3694"/>
  <text x="44" y="500" fill="#ED3694" font-size="12" font-weight="bold" letter-spacing="1">TOP 3 MITIGATIONS</text>

  <!-- Table header -->
  <text x="44" y="524" fill="#7A7F8E" font-size="11" font-weight="bold">RISK</text>
  <text x="280" y="524" fill="#7A7F8E" font-size="11" font-weight="bold">LIKELIHOOD</text>
  <text x="400" y="524" fill="#7A7F8E" font-size="11" font-weight="bold">IMPACT</text>
  <text x="510" y="524" fill="#7A7F8E" font-size="11" font-weight="bold">DE-RISK ACTION</text>
  <line x1="44" y1="532" x2="756" y2="532" stroke="#2A3656" stroke-width="1"/>

  <!-- Mitigation 1 -->
  <text x="44" y="554" fill="#B8BCC8" font-size="12">Runway runs out</text>
  <text x="280" y="554" fill="#ED3694" font-size="12">High</text>
  <text x="400" y="554" fill="#ED3694" font-size="12">Critical</text>
  <text x="510" y="554" fill="#B8BCC8" font-size="12">Cut burn rate 30%, secure bridge round</text>

  <!-- Mitigation 2 -->
  <text x="44" y="586" fill="#B8BCC8" font-size="12">Product-market misfit</text>
  <text x="280" y="586" fill="#F15A22" font-size="12">Medium</text>
  <text x="400" y="586" fill="#ED3694" font-size="12">Critical</text>
  <text x="510" y="586" fill="#B8BCC8" font-size="12">Run 20 discovery interviews this month</text>

  <!-- Mitigation 3 -->
  <text x="44" y="618" fill="#B8BCC8" font-size="12">Key person leaves</text>
  <text x="280" y="618" fill="#F15A22" font-size="12">Medium</text>
  <text x="400" y="618" fill="#F15A22" font-size="12">High</text>
  <text x="510" y="618" fill="#B8BCC8" font-size="12">Document everything, vest equity monthly</text>

  <!-- Dividers -->
  <line x1="44" y1="566" x2="756" y2="566" stroke="#2A3656" stroke-width="0.5"/>
  <line x1="44" y1="598" x2="756" y2="598" stroke="#2A3656" stroke-width="0.5"/>
</svg>