<svg xmlns="http://www.w3.org/2000/svg" width="800" height="700" viewBox="0 0 800 700">
  <defs>
    <style>text { font-family: 'Inter', 'Helvetica Neue', Arial, sans-serif; }</style>
  </defs>

  <!-- Background -->
  <rect width="800" height="700" fill="#1B2A4A"/>

  <!-- Title bar -->
  <rect x="0" y="0" width="2" height="40" fill="#ED3694"/>
  <text x="16" y="26" fill="#ED3694" font-size="11" font-weight="600" letter-spacing="3">TEST</text>
  <text x="784" y="26" fill="#FFFFFF" font-size="16" font-weight="700" text-anchor="end">Pre-Mortem</text>
  <line x1="0" y1="40" x2="800" y2="40" stroke="#2A3656" stroke-width="1"/>

  <!-- Opening prompt -->
  <text x="400" y="72" fill="#ED3694" font-size="12" font-style="italic" text-anchor="middle">It's 12 months from now. The project failed. What went wrong?</text>

  <!-- Risk grid: 3 cols x 2 rows -->
  <!-- Row 1 -->
  <rect x="16" y="88" width="248" height="152" fill="#1F2E4D" rx="4" stroke="#2A3656" stroke-width="1"/>
  <text x="40" y="112" fill="#ED3694" font-size="11" font-weight="600" letter-spacing="2">MARKET RISK</text>
  <text x="40" y="136" fill="#C8CED8" font-size="12">Target market too small to sustain growth.</text>
  <text x="40" y="160" fill="#C8CED8" font-size="12">Customer needs shifted post-launch.</text>
  <text x="40" y="184" fill="#C8CED8" font-size="12">Regulatory changes blocked distribution.</text>

  <rect x="280" y="88" width="248" height="152" fill="#1F2E4D" rx="4" stroke="#2A3656" stroke-width="1"/>
  <text x="304" y="112" fill="#ED3694" font-size="11" font-weight="600" letter-spacing="2">PRODUCT RISK</text>
  <text x="304" y="136" fill="#C8CED8" font-size="12">Core feature didn't solve the real pain.</text>
  <text x="304" y="160" fill="#C8CED8" font-size="12">Technical debt slowed iteration speed.</text>
  <text x="304" y="184" fill="#C8CED8" font-size="12">UX too complex for non-technical users.</text>

  <rect x="544" y="88" width="240" height="152" fill="#1F2E4D" rx="4" stroke="#2A3656" stroke-width="1"/>
  <text x="568" y="112" fill="#ED3694" font-size="11" font-weight="600" letter-spacing="2">TEAM RISK</text>
  <text x="568" y="136" fill="#C8CED8" font-size="12">Co-founder disagreement on direction.</text>
  <text x="568" y="160" fill="#C8CED8" font-size="12">Key engineer left before V2 launch.</text>
  <text x="568" y="184" fill="#C8CED8" font-size="12">Founder burnout from wearing all hats.</text>

  <!-- Row 2 -->
  <rect x="16" y="256" width="248" height="152" fill="#1F2E4D" rx="4" stroke="#2A3656" stroke-width="1"/>
  <text x="40" y="280" fill="#ED3694" font-size="11" font-weight="600" letter-spacing="2">FINANCIAL RISK</text>
  <text x="40" y="304" fill="#C8CED8" font-size="12">Runway ran out before revenue kicked in.</text>
  <text x="40" y="328" fill="#C8CED8" font-size="12">CAC was 3x higher than projected.</text>
  <text x="40" y="352" fill="#C8CED8" font-size="12">Failed to close Series A in time.</text>

  <rect x="280" y="256" width="248" height="152" fill="#1F2E4D" rx="4" stroke="#2A3656" stroke-width="1"/>
  <text x="304" y="280" fill="#ED3694" font-size="11" font-weight="600" letter-spacing="2">COMPETITION RISK</text>
  <text x="304" y="304" fill="#C8CED8" font-size="12">Incumbent launched similar feature set.</text>
  <text x="304" y="328" fill="#C8CED8" font-size="12">Better-funded competitor copied model.</text>
  <text x="304" y="352" fill="#C8CED8" font-size="12">Open-source alternative emerged.</text>

  <rect x="544" y="256" width="240" height="152" fill="#1F2E4D" rx="4" stroke="#2A3656" stroke-width="1"/>
  <text x="568" y="280" fill="#ED3694" font-size="11" font-weight="600" letter-spacing="2">TIMING RISK</text>
  <text x="568" y="304" fill="#C8CED8" font-size="12">Market wasn't ready for the solution.</text>
  <text x="568" y="328" fill="#C8CED8" font-size="12">Launched during economic downturn.</text>
  <text x="568" y="352" fill="#C8CED8" font-size="12">Development took 6 months too long.</text>

  <!-- Top 3 Mitigations -->
  <rect x="16" y="424" width="768" height="240" fill="#1F2E4D" rx="4" stroke="#2A3656" stroke-width="1"/>
  <rect x="16" y="424" width="768" height="2" fill="#ED3694"/>
  <text x="40" y="456" fill="#ED3694" font-size="11" font-weight="600" letter-spacing="2">TOP 3 MITIGATIONS</text>

  <!-- Table header -->
  <text x="40" y="488" fill="#6B7A8E" font-size="11" font-weight="600">RISK</text>
  <text x="280" y="488" fill="#6B7A8E" font-size="11" font-weight="600">LIKELIHOOD</text>
  <text x="400" y="488" fill="#6B7A8E" font-size="11" font-weight="600">IMPACT</text>
  <text x="512" y="488" fill="#6B7A8E" font-size="11" font-weight="600">DE-RISK ACTION</text>
  <line x1="40" y1="496" x2="760" y2="496" stroke="#2A3656" stroke-width="1"/>

  <!-- Row 1 -->
  <text x="40" y="520" fill="#C8CED8" font-size="12">Runway runs out</text>
  <text x="280" y="520" fill="#ED3694" font-size="12">High</text>
  <text x="400" y="520" fill="#ED3694" font-size="12">Critical</text>
  <text x="512" y="520" fill="#C8CED8" font-size="12">Cut burn rate 30%, secure bridge round.</text>
  <line x1="40" y1="536" x2="760" y2="536" stroke="#2A3656" stroke-width="0.5"/>

  <!-- Row 2 -->
  <text x="40" y="560" fill="#C8CED8" font-size="12">Product-market misfit</text>
  <text x="280" y="560" fill="#ED3694" font-size="12" opacity="0.6">Medium</text>
  <text x="400" y="560" fill="#ED3694" font-size="12">Critical</text>
  <text x="512" y="560" fill="#C8CED8" font-size="12">Run 20 discovery interviews this month.</text>
  <line x1="40" y1="576" x2="760" y2="576" stroke="#2A3656" stroke-width="0.5"/>

  <!-- Row 3 -->
  <text x="40" y="600" fill="#C8CED8" font-size="12">Key person leaves</text>
  <text x="280" y="600" fill="#ED3694" font-size="12" opacity="0.6">Medium</text>
  <text x="400" y="600" fill="#ED3694" font-size="12" opacity="0.6">High</text>
  <text x="512" y="600" fill="#C8CED8" font-size="12">Document everything, vest equity monthly.</text>
</svg>