<svg xmlns="http://www.w3.org/2000/svg" width="800" height="700" viewBox="0 0 800 700">
  <defs>
    <style>text { font-family: Arial, sans-serif; }</style>
  </defs>

  <!-- Background -->
  <rect width="800" height="700" fill="#1B2A4A" rx="8"/>

  <!-- Title bar -->
  <rect x="0" y="0" width="800" height="56" fill="#1F2E4D" rx="8"/>
  <rect x="0" y="48" width="800" height="8" fill="#1F2E4D"/>
  <rect x="0" y="0" width="3" height="56" fill="#F15A22"/>
  <text x="24" y="36" fill="#F15A22" font-size="13" font-weight="bold" letter-spacing="2">THE SPARK</text>
  <text x="140" y="36" fill="#FFFFFF" font-size="18" font-weight="bold">SCAMPER</text>

  <!-- S — Substitute -->
  <rect x="24" y="76" width="752" height="78" fill="#1F2E4D" rx="8" stroke="#2A3656" stroke-width="1"/>
  <line x1="24" y1="154" x2="776" y2="154" stroke="#2A3656" stroke-width="0.5"/>
  <text x="44" y="110" fill="#F15A22" font-size="24" font-weight="bold">S</text>
  <text x="72" y="98" fill="#FFFFFF" font-size="14" font-weight="bold">Substitute</text>
  <text x="72" y="116" fill="#7A7F8E" font-size="12">What components, materials, or people could you swap out?</text>
  <text x="72" y="140" fill="#B8BCC8" font-size="13">Replace in-person workshops with async video modules</text>

  <!-- C — Combine -->
  <rect x="24" y="160" width="752" height="78" fill="#1F2E4D" rx="8" stroke="#2A3656" stroke-width="1"/>
  <line x1="24" y1="238" x2="776" y2="238" stroke="#2A3656" stroke-width="0.5"/>
  <text x="44" y="194" fill="#F15A22" font-size="24" font-weight="bold">C</text>
  <text x="72" y="182" fill="#FFFFFF" font-size="14" font-weight="bold">Combine</text>
  <text x="72" y="200" fill="#7A7F8E" font-size="12">What ideas, functions, or products could you merge?</text>
  <text x="72" y="224" fill="#B8BCC8" font-size="13">Merge onboarding with first customer success call</text>

  <!-- A — Adapt -->
  <rect x="24" y="244" width="752" height="78" fill="#1F2E4D" rx="8" stroke="#2A3656" stroke-width="1"/>
  <line x1="24" y1="322" x2="776" y2="322" stroke="#2A3656" stroke-width="0.5"/>
  <text x="44" y="278" fill="#F15A22" font-size="24" font-weight="bold">A</text>
  <text x="72" y="266" fill="#FFFFFF" font-size="14" font-weight="bold">Adapt</text>
  <text x="72" y="284" fill="#7A7F8E" font-size="12">What else is like this? What could you copy or borrow from another industry?</text>
  <text x="72" y="308" fill="#B8BCC8" font-size="13">Adapt Duolingo's streak system for daily product engagement</text>

  <!-- M — Modify / Magnify -->
  <rect x="24" y="328" width="752" height="78" fill="#1F2E4D" rx="8" stroke="#2A3656" stroke-width="1"/>
  <line x1="24" y1="406" x2="776" y2="406" stroke="#2A3656" stroke-width="0.5"/>
  <text x="44" y="362" fill="#F15A22" font-size="24" font-weight="bold">M</text>
  <text x="72" y="350" fill="#FFFFFF" font-size="14" font-weight="bold">Modify / Magnify</text>
  <text x="72" y="368" fill="#7A7F8E" font-size="12">What could you enlarge, exaggerate, or make more prominent?</text>
  <text x="72" y="392" fill="#B8BCC8" font-size="13">Amplify social proof by showing real-time user activity feed</text>

  <!-- P — Put to other uses -->
  <rect x="24" y="412" width="752" height="78" fill="#1F2E4D" rx="8" stroke="#2A3656" stroke-width="1"/>
  <line x1="24" y1="490" x2="776" y2="490" stroke="#2A3656" stroke-width="0.5"/>
  <text x="44" y="446" fill="#F15A22" font-size="24" font-weight="bold">P</text>
  <text x="72" y="434" fill="#FFFFFF" font-size="14" font-weight="bold">Put to other uses</text>
  <text x="72" y="452" fill="#7A7F8E" font-size="12">Could this product serve a different market or solve a different problem?</text>
  <text x="72" y="476" fill="#B8BCC8" font-size="13">Repurpose the analytics dashboard as a standalone benchmarking tool</text>

  <!-- E — Eliminate -->
  <rect x="24" y="496" width="752" height="78" fill="#1F2E4D" rx="8" stroke="#2A3656" stroke-width="1"/>
  <line x1="24" y1="574" x2="776" y2="574" stroke="#2A3656" stroke-width="0.5"/>
  <text x="44" y="530" fill="#F15A22" font-size="24" font-weight="bold">E</text>
  <text x="72" y="518" fill="#FFFFFF" font-size="14" font-weight="bold">Eliminate</text>
  <text x="72" y="536" fill="#7A7F8E" font-size="12">What could you remove, simplify, or reduce to its essence?</text>
  <text x="72" y="560" fill="#B8BCC8" font-size="13">Remove the pricing page entirely and start with a free trial by default</text>

  <!-- R — Reverse / Rearrange -->
  <rect x="24" y="580" width="752" height="78" fill="#1F2E4D" rx="8" stroke="#2A3656" stroke-width="1"/>
  <text x="44" y="614" fill="#F15A22" font-size="24" font-weight="bold">R</text>
  <text x="72" y="602" fill="#FFFFFF" font-size="14" font-weight="bold">Reverse / Rearrange</text>
  <text x="72" y="620" fill="#7A7F8E" font-size="12">What if you reversed the process or rearranged the order?</text>
  <text x="72" y="644" fill="#B8BCC8" font-size="13">Let users see results first, then work backward to set up inputs</text>
</svg>