<svg xmlns="http://www.w3.org/2000/svg" width="800" height="700" viewBox="0 0 800 700">
  <defs>
    <style>text { font-family: Arial, sans-serif; }</style>
  </defs>

  <!-- Background -->
  <rect width="800" height="700" fill="#1B2A4A" rx="8"/>

  <!-- Title bar -->
  <rect x="0" y="0" width="800" height="56" fill="#1F2E4D" rx="8"/>
  <rect x="0" y="48" width="800" height="8" fill="#1F2E4D"/>
  <rect x="0" y="0" width="3" height="56" fill="#27BDBE"/>
  <text x="24" y="36" fill="#27BDBE" font-size="13" font-weight="bold" letter-spacing="2">THE UNTANGLE</text>
  <text x="180" y="36" fill="#FFFFFF" font-size="18" font-weight="bold">SOCRATIC QUESTIONING</text>

  <!-- Subtitle -->
  <text x="40" y="86" fill="#7A7F8E" font-size="11">8 claims  ·  3 Verified  ·  3 Assumed  ·  2 Inherited</text>

  <!-- Row 1 -->
  <!-- Card 1: Verified -->
  <rect x="40" y="100" width="345" height="72" rx="8" fill="#1F2E4D" stroke="#27BDBE" stroke-width="2"/>
  <text x="56" y="120" fill="#27BDBE" font-size="11" font-weight="bold" letter-spacing="0.8">VERIFIED</text>
  <text x="56" y="138" fill="#B8BCC8" font-size="12">US regulatory environment is</text>
  <text x="56" y="154" fill="#B8BCC8" font-size="12">favourable</text>

  <!-- Card 2: Verified -->
  <rect x="415" y="100" width="345" height="72" rx="8" fill="#1F2E4D" stroke="#27BDBE" stroke-width="2"/>
  <text x="431" y="120" fill="#27BDBE" font-size="11" font-weight="bold" letter-spacing="0.8">VERIFIED</text>
  <text x="431" y="138" fill="#B8BCC8" font-size="12">Australian team can manage</text>
  <text x="431" y="154" fill="#B8BCC8" font-size="12">US operations</text>

  <!-- Row 2 -->
  <!-- Card 3: Verified -->
  <rect x="40" y="186" width="345" height="72" rx="8" fill="#1F2E4D" stroke="#27BDBE" stroke-width="2"/>
  <text x="56" y="206" fill="#27BDBE" font-size="11" font-weight="bold" letter-spacing="0.8">VERIFIED</text>
  <text x="56" y="224" fill="#B8BCC8" font-size="12">Brand recognition transfers</text>
  <text x="56" y="240" fill="#B8BCC8" font-size="12">internationally</text>

  <!-- Card 4: Assumed (0.5 opacity teal) -->
  <rect x="415" y="186" width="345" height="72" rx="8" fill="#1F2E4D" stroke="#27BDBE" stroke-width="2" stroke-opacity="0.5"/>
  <text x="431" y="206" fill="#27BDBE" font-size="11" font-weight="bold" letter-spacing="0.8" opacity="0.5">ASSUMED</text>
  <text x="431" y="224" fill="#B8BCC8" font-size="12">Product works without modification</text>
  <text x="431" y="240" fill="#B8BCC8" font-size="12">in US</text>

  <!-- Row 3 -->
  <!-- Card 5: Assumed — CRITICAL -->
  <rect x="40" y="272" width="345" height="72" rx="8" fill="#1F2E4D" stroke="#27BDBE" stroke-width="4" stroke-opacity="0.5"/>
  <text x="56" y="292" fill="#27BDBE" font-size="11" font-weight="bold" letter-spacing="0.8" opacity="0.5">ASSUMED — CRITICAL</text>
  <text x="56" y="310" fill="#FFFFFF" font-size="12" font-weight="bold">Partnership model scales to</text>
  <text x="56" y="326" fill="#FFFFFF" font-size="12" font-weight="bold">larger market</text>

  <!-- Card 6: Assumed -->
  <rect x="415" y="272" width="345" height="72" rx="8" fill="#1F2E4D" stroke="#27BDBE" stroke-width="2" stroke-opacity="0.5"/>
  <text x="431" y="292" fill="#27BDBE" font-size="11" font-weight="bold" letter-spacing="0.8" opacity="0.5">ASSUMED</text>
  <text x="431" y="310" fill="#B8BCC8" font-size="12">US pricing matches Australian</text>
  <text x="431" y="326" fill="#B8BCC8" font-size="12">margins</text>

  <!-- Row 4 -->
  <!-- Card 7: Inherited (0.2 opacity teal) -->
  <rect x="40" y="358" width="345" height="72" rx="8" fill="#1F2E4D" stroke="#27BDBE" stroke-width="2" stroke-opacity="0.2"/>
  <text x="56" y="378" fill="#27BDBE" font-size="11" font-weight="bold" letter-spacing="0.8" opacity="0.2">INHERITED</text>
  <text x="56" y="396" fill="#B8BCC8" font-size="12">Board will approve the</text>
  <text x="56" y="412" fill="#B8BCC8" font-size="12">investment</text>

  <!-- Card 8: Inherited -->
  <rect x="415" y="358" width="345" height="72" rx="8" fill="#1F2E4D" stroke="#27BDBE" stroke-width="2" stroke-opacity="0.2"/>
  <text x="431" y="378" fill="#27BDBE" font-size="11" font-weight="bold" letter-spacing="0.8" opacity="0.2">INHERITED</text>
  <text x="431" y="396" fill="#B8BCC8" font-size="12">Competitors won't respond for</text>
  <text x="431" y="412" fill="#B8BCC8" font-size="12">12 months</text>

  <!-- Divider -->
  <line x1="40" y1="454" x2="760" y2="454" stroke="#2A3656" stroke-width="1"/>

  <!-- Critical Assumption callout -->
  <rect x="40" y="472" width="720" height="72" rx="8" fill="#1F2E4D" stroke="#27BDBE" stroke-width="2"/>
  <rect x="40" y="472" width="6" height="72" rx="3" fill="#27BDBE"/>
  <text x="66" y="494" fill="#27BDBE" font-size="11" font-weight="bold" letter-spacing="0.8">CRITICAL ASSUMPTION</text>
  <text x="66" y="514" fill="#FFFFFF" font-size="14">Partnership model scales to US market</text>
  <text x="66" y="530" fill="#7A7F8E" font-size="11">Believed by the whole team. Never tested with a single US partner.</text>

  <!-- Test action box -->
  <rect x="40" y="562" width="720" height="80" rx="8" fill="#1F2E4D" stroke="#27BDBE" stroke-width="1.5"/>
  <text x="66" y="586" fill="#27BDBE" font-size="11" font-weight="bold" letter-spacing="0.8">TEST</text>
  <text x="66" y="606" fill="#FFFFFF" font-size="12">Run 3 partnership conversations with US distributors this month.</text>
  <text x="66" y="624" fill="#B8BCC8" font-size="12">If none show interest in the current model, rethink before committing budget.</text>
</svg>