<svg xmlns="http://www.w3.org/2000/svg" width="800" height="700" viewBox="0 0 800 700">
  <defs>
    <style>text { font-family: 'Inter', 'Helvetica Neue', Arial, sans-serif; }</style>
  </defs>

  <!-- Background -->
  <rect width="800" height="700" fill="#1B2A4A"/>

  <!-- Title bar -->
  <rect x="0" y="0" width="2" height="40" fill="#27BDBE"/>
  <text x="16" y="26" fill="#27BDBE" font-size="11" font-weight="600" letter-spacing="3">UNTANGLE</text>
  <text x="784" y="26" fill="#FFFFFF" font-size="16" font-weight="700" text-anchor="end">Socratic Questioning</text>
  <line x1="0" y1="40" x2="800" y2="40" stroke="#2A3656" stroke-width="1"/>

  <!-- Subtitle -->
  <text x="40" y="68" fill="#6B7A8E" font-size="11">8 claims  |  3 Verified  |  3 Assumed  |  2 Inherited</text>

  <!-- Row 1 -->
  <rect x="16" y="80" width="376" height="72" rx="4" fill="#1F2E4D" stroke="#27BDBE" stroke-width="1.5"/>
  <text x="40" y="104" fill="#27BDBE" font-size="11" font-weight="600" letter-spacing="1">VERIFIED</text>
  <text x="40" y="128" fill="#C8CED8" font-size="12">US regulatory environment is favourable.</text>

  <rect x="408" y="80" width="376" height="72" rx="4" fill="#1F2E4D" stroke="#27BDBE" stroke-width="1.5"/>
  <text x="432" y="104" fill="#27BDBE" font-size="11" font-weight="600" letter-spacing="1">VERIFIED</text>
  <text x="432" y="128" fill="#C8CED8" font-size="12">Australian team can manage US operations.</text>

  <!-- Row 2 -->
  <rect x="16" y="168" width="376" height="72" rx="4" fill="#1F2E4D" stroke="#27BDBE" stroke-width="1.5"/>
  <text x="40" y="192" fill="#27BDBE" font-size="11" font-weight="600" letter-spacing="1">VERIFIED</text>
  <text x="40" y="216" fill="#C8CED8" font-size="12">Brand recognition transfers internationally.</text>

  <rect x="408" y="168" width="376" height="72" rx="4" fill="#1F2E4D" stroke="#27BDBE" stroke-width="1" stroke-opacity="0.5"/>
  <text x="432" y="192" fill="#27BDBE" font-size="11" font-weight="600" letter-spacing="1" opacity="0.5">ASSUMED</text>
  <text x="432" y="216" fill="#C8CED8" font-size="12">Product works without modification in US.</text>

  <!-- Row 3 -->
  <rect x="16" y="256" width="376" height="72" rx="4" fill="#1F2E4D" stroke="#27BDBE" stroke-width="1.5" stroke-opacity="0.5"/>
  <text x="40" y="280" fill="#27BDBE" font-size="11" font-weight="600" letter-spacing="1" opacity="0.5">ASSUMED — CRITICAL</text>
  <text x="40" y="304" fill="#FFFFFF" font-size="12" font-weight="700">Partnership model scales to larger market.</text>

  <rect x="408" y="256" width="376" height="72" rx="4" fill="#1F2E4D" stroke="#27BDBE" stroke-width="1" stroke-opacity="0.5"/>
  <text x="432" y="280" fill="#27BDBE" font-size="11" font-weight="600" letter-spacing="1" opacity="0.5">ASSUMED</text>
  <text x="432" y="304" fill="#C8CED8" font-size="12">US pricing matches Australian margins.</text>

  <!-- Row 4 -->
  <rect x="16" y="344" width="376" height="72" rx="4" fill="#1F2E4D" stroke="#27BDBE" stroke-width="1" stroke-opacity="0.2"/>
  <text x="40" y="368" fill="#27BDBE" font-size="11" font-weight="600" letter-spacing="1" opacity="0.2">INHERITED</text>
  <text x="40" y="392" fill="#C8CED8" font-size="12">Board will approve the investment.</text>

  <rect x="408" y="344" width="376" height="72" rx="4" fill="#1F2E4D" stroke="#27BDBE" stroke-width="1" stroke-opacity="0.2"/>
  <text x="432" y="368" fill="#27BDBE" font-size="11" font-weight="600" letter-spacing="1" opacity="0.2">INHERITED</text>
  <text x="432" y="392" fill="#C8CED8" font-size="12">Competitors won't respond for 12 months.</text>

  <!-- Separator -->
  <line x1="16" y1="432" x2="784" y2="432" stroke="#2A3656" stroke-width="1"/>

  <!-- Critical Assumption -->
  <rect x="16" y="448" width="768" height="80" rx="4" fill="#1F2E4D" stroke="#27BDBE" stroke-width="1.5"/>
  <rect x="16" y="448" width="2" height="80" fill="#27BDBE"/>
  <text x="40" y="472" fill="#27BDBE" font-size="11" font-weight="600" letter-spacing="2">CRITICAL ASSUMPTION</text>
  <text x="40" y="496" fill="#FFFFFF" font-size="14" font-weight="700">Partnership model scales to US market.</text>
  <text x="40" y="520" fill="#6B7A8E" font-size="11">Believed by the whole team. Never tested with a single US partner.</text>

  <!-- Test -->
  <rect x="16" y="544" width="768" height="80" rx="4" fill="#1F2E4D" stroke="#27BDBE" stroke-width="1"/>
  <text x="40" y="568" fill="#27BDBE" font-size="11" font-weight="600" letter-spacing="2">TEST</text>
  <text x="40" y="592" fill="#FFFFFF" font-size="12">Run 3 partnership conversations with US distributors this month.</text>
  <text x="40" y="616" fill="#C8CED8" font-size="12">If none show interest in the current model, rethink before committing budget.</text>
</svg>