<svg xmlns="http://www.w3.org/2000/svg" width="800" height="700" viewBox="0 0 800 700">
  <defs>
    <style>text { font-family: 'Inter', 'Helvetica Neue', Arial, sans-serif; }</style>
  </defs>

  <!-- Background -->
  <rect width="800" height="700" fill="#1B2A4A"/>

  <!-- Title bar -->
  <rect x="0" y="0" width="2" height="40" fill="#ED3694"/>
  <text x="16" y="26" fill="#ED3694" font-size="11" font-weight="600" letter-spacing="3">TEST</text>
  <text x="784" y="26" fill="#FFFFFF" font-size="16" font-weight="700" text-anchor="end">The Trade-Off</text>
  <line x1="0" y1="40" x2="800" y2="40" stroke="#2A3656" stroke-width="1"/>

  <!-- Subtitle -->
  <text x="40" y="68" fill="#6B7A8E" font-size="10">SaaS Productivity Platform — 7 features, 3 rounds</text>

  <!-- LEFT: Features -->
  <text x="40" y="96" fill="#ED3694" font-size="10" font-weight="600" letter-spacing="2">FEATURES</text>

  <rect x="16" y="104" width="136" height="32" rx="4" fill="#1F2E4D" stroke="#2A3656" stroke-width="1"/>
  <text x="32" y="124" fill="#FFFFFF" font-size="11" font-weight="700">Guided Onboarding</text>

  <rect x="16" y="144" width="136" height="32" rx="4" fill="#1F2E4D" stroke="#2A3656" stroke-width="1"/>
  <text x="32" y="164" fill="#FFFFFF" font-size="11" font-weight="700">Core Workflow</text>

  <rect x="16" y="184" width="136" height="32" rx="4" fill="#1F2E4D" stroke="#2A3656" stroke-width="1"/>
  <text x="32" y="204" fill="#FFFFFF" font-size="11" font-weight="700">Team Collaboration</text>

  <rect x="16" y="224" width="136" height="32" rx="4" fill="#1F2E4D" stroke="#2A3656" stroke-width="1"/>
  <text x="32" y="244" fill="#FFFFFF" font-size="11" font-weight="700">Custom Reporting</text>

  <rect x="16" y="264" width="136" height="32" rx="4" fill="#1F2E4D" stroke="#2A3656" stroke-width="1"/>
  <text x="32" y="284" fill="#FFFFFF" font-size="11" font-weight="700">API Integrations</text>

  <rect x="16" y="304" width="136" height="32" rx="4" fill="#1F2E4D" stroke="#2A3656" stroke-width="1"/>
  <text x="32" y="324" fill="#FFFFFF" font-size="11" font-weight="700">Analytics Dashboard</text>

  <rect x="16" y="344" width="136" height="32" rx="4" fill="#1F2E4D" stroke="#2A3656" stroke-width="1"/>
  <text x="32" y="364" fill="#FFFFFF" font-size="11" font-weight="700">White-label</text>

  <!-- CENTRE: Trade-off rounds -->
  <!-- Round 1 -->
  <text x="200" y="96" fill="#ED3694" font-size="10" font-weight="600" letter-spacing="2">ROUND 1</text>

  <rect x="184" y="104" width="160" height="72" rx="4" fill="#1F2E4D" stroke="#ED3694" stroke-width="1.5"/>
  <text x="200" y="124" fill="#ED3694" font-size="10" font-weight="700">Package A</text>
  <text x="200" y="144" fill="#C8CED8" font-size="10">Onboarding + Core + Team</text>
  <text x="200" y="160" fill="#6B7A8E" font-size="10">$49/mo</text>
  <text x="312" y="168" fill="#ED3694" font-size="10" font-weight="600">WINNER</text>

  <rect x="184" y="192" width="160" height="64" rx="4" fill="#1F2E4D" stroke="#2A3656" stroke-width="1" opacity="0.5"/>
  <text x="200" y="212" fill="#C8CED8" font-size="10">Package B</text>
  <text x="200" y="228" fill="#C8CED8" font-size="10">Analytics + API + Reporting</text>
  <text x="200" y="244" fill="#6B7A8E" font-size="10">$39/mo</text>

  <!-- Round 2 -->
  <text x="200" y="284" fill="#ED3694" font-size="10" font-weight="600" letter-spacing="2">ROUND 2</text>

  <rect x="184" y="292" width="160" height="72" rx="4" fill="#1F2E4D" stroke="#ED3694" stroke-width="1.5"/>
  <text x="200" y="312" fill="#ED3694" font-size="10" font-weight="700">Package A</text>
  <text x="200" y="332" fill="#C8CED8" font-size="10">Core + Onboarding + API</text>
  <text x="200" y="348" fill="#6B7A8E" font-size="10">$59/mo</text>
  <text x="312" y="356" fill="#ED3694" font-size="10" font-weight="600">WINNER</text>

  <rect x="184" y="380" width="160" height="64" rx="4" fill="#1F2E4D" stroke="#2A3656" stroke-width="1" opacity="0.5"/>
  <text x="200" y="400" fill="#C8CED8" font-size="10">Package B</text>
  <text x="200" y="416" fill="#C8CED8" font-size="10">Analytics + Team + White-label</text>
  <text x="200" y="432" fill="#6B7A8E" font-size="10">$45/mo</text>

  <!-- Round 3 -->
  <text x="200" y="472" fill="#ED3694" font-size="10" font-weight="600" letter-spacing="2">ROUND 3</text>

  <rect x="184" y="480" width="160" height="72" rx="4" fill="#1F2E4D" stroke="#ED3694" stroke-width="1.5"/>
  <text x="200" y="500" fill="#ED3694" font-size="10" font-weight="700">Package A</text>
  <text x="200" y="520" fill="#C8CED8" font-size="10">Team + Onboarding + Core</text>
  <text x="200" y="536" fill="#6B7A8E" font-size="10">$69/mo</text>
  <text x="312" y="544" fill="#ED3694" font-size="10" font-weight="600">WINNER</text>

  <rect x="184" y="568" width="160" height="56" rx="4" fill="#1F2E4D" stroke="#2A3656" stroke-width="1" opacity="0.5"/>
  <text x="200" y="588" fill="#C8CED8" font-size="10">Package B</text>
  <text x="200" y="604" fill="#C8CED8" font-size="10">Reporting + Analytics + API</text>

  <!-- RIGHT: Value Stack -->
  <text x="408" y="96" fill="#ED3694" font-size="10" font-weight="600" letter-spacing="2">VALUE STACK</text>

  <rect x="392" y="104" width="224" height="40" rx="4" fill="#1F2E4D" stroke="#2A3656" stroke-width="1"/>
  <text x="408" y="124" fill="#ED3694" font-size="10" font-weight="700">1</text>
  <text x="424" y="124" fill="#FFFFFF" font-size="11" font-weight="700">Guided Onboarding</text>
  <text x="568" y="124" fill="#6B7A8E" font-size="10">6/6</text>
  <text x="592" y="124" fill="#ED3694" font-size="10" font-weight="600">MUST</text>

  <rect x="392" y="152" width="224" height="40" rx="4" fill="#1F2E4D" stroke="#2A3656" stroke-width="1"/>
  <text x="408" y="172" fill="#ED3694" font-size="10" font-weight="700">2</text>
  <text x="424" y="172" fill="#FFFFFF" font-size="11" font-weight="700">Core Workflow</text>
  <text x="568" y="172" fill="#6B7A8E" font-size="10">5/6</text>
  <text x="592" y="172" fill="#ED3694" font-size="10" font-weight="600">MUST</text>

  <rect x="392" y="200" width="224" height="40" rx="4" fill="#1F2E4D" stroke="#2A3656" stroke-width="1"/>
  <text x="408" y="220" fill="#ED3694" font-size="10" font-weight="700">3</text>
  <text x="424" y="220" fill="#FFFFFF" font-size="11" font-weight="700">Team Collaboration</text>
  <text x="568" y="220" fill="#6B7A8E" font-size="10">4/6</text>
  <text x="592" y="220" fill="#ED3694" font-size="10" font-weight="600">MUST</text>

  <rect x="392" y="248" width="224" height="40" rx="4" fill="#1F2E4D" stroke="#2A3656" stroke-width="1"/>
  <text x="408" y="268" fill="#ED3694" font-size="10" font-weight="700">4</text>
  <text x="424" y="268" fill="#FFFFFF" font-size="11" font-weight="700">Custom Reporting</text>
  <text x="568" y="268" fill="#6B7A8E" font-size="10">2/6</text>
  <text x="592" y="268" fill="#ED3694" font-size="10" font-weight="600" opacity="0.5">NICE</text>

  <rect x="392" y="296" width="224" height="40" rx="4" fill="#1F2E4D" stroke="#2A3656" stroke-width="1"/>
  <text x="408" y="316" fill="#ED3694" font-size="10" font-weight="700">5</text>
  <text x="424" y="316" fill="#FFFFFF" font-size="11" font-weight="700">API Integrations</text>
  <text x="568" y="316" fill="#6B7A8E" font-size="10">2/6</text>
  <text x="592" y="316" fill="#ED3694" font-size="10" font-weight="600" opacity="0.5">NICE</text>

  <rect x="392" y="344" width="224" height="40" rx="4" fill="#1F2E4D" stroke="#2A3656" stroke-width="1"/>
  <text x="408" y="364" fill="#ED3694" font-size="10" font-weight="700">6</text>
  <text x="424" y="364" fill="#FFFFFF" font-size="11" font-weight="700">Analytics Dashboard</text>
  <text x="568" y="364" fill="#6B7A8E" font-size="10">1/6</text>
  <text x="592" y="364" fill="#ED3694" font-size="10" font-weight="600" opacity="0.3">EXP</text>

  <rect x="392" y="392" width="224" height="40" rx="4" fill="#1F2E4D" stroke="#2A3656" stroke-width="1"/>
  <text x="408" y="412" fill="#ED3694" font-size="10" font-weight="700">7</text>
  <text x="424" y="412" fill="#FFFFFF" font-size="11" font-weight="700">White-label</text>
  <text x="568" y="412" fill="#6B7A8E" font-size="10">0/6</text>
  <text x="592" y="412" fill="#ED3694" font-size="10" font-weight="600" opacity="0.3">EXP</text>

  <!-- MVO Card -->
  <rect x="392" y="456" width="392" height="120" rx="4" fill="#1F2E4D" stroke="#ED3694" stroke-width="1.5"/>
  <rect x="392" y="456" width="2" height="120" fill="#ED3694"/>
  <text x="416" y="480" fill="#ED3694" font-size="10" font-weight="600" letter-spacing="2">MINIMUM VIABLE OFFER</text>
  <text x="416" y="508" fill="#FFFFFF" font-size="14" font-weight="700">Core + Onboarding + Team</text>
  <text x="416" y="536" fill="#FFFFFF" font-size="22" font-weight="700">$49<tspan font-size="12" fill="#6B7A8E">/month</tspan></text>
  <text x="416" y="560" fill="#C8CED8" font-size="10">Simplest version someone would still pay for.</text>
</svg>