<svg xmlns="http://www.w3.org/2000/svg" width="800" height="700" viewBox="0 0 800 700">
  <defs>
    <style>text { font-family: Arial, sans-serif; }</style>
  </defs>

  <!-- Background -->
  <rect width="800" height="700" fill="#1B2A4A" rx="8"/>

  <!-- Title bar -->
  <rect x="0" y="0" width="800" height="56" fill="#1F2E4D" rx="8"/>
  <rect x="0" y="48" width="800" height="8" fill="#1F2E4D"/>
  <rect x="0" y="0" width="3" height="56" fill="#ED3694"/>
  <text x="24" y="36" fill="#ED3694" font-size="13" font-weight="bold" letter-spacing="2">THE TEST</text>
  <text x="120" y="36" fill="#FFFFFF" font-size="18" font-weight="bold">THE TRADE-OFF</text>

  <!-- Subtitle -->
  <text x="30" y="82" fill="#7A7F8E" font-size="9">SaaS Productivity Platform — 7 features, 3 rounds</text>

  <!-- LEFT: FEATURE CARDS -->
  <text x="30" y="108" fill="#ED3694" font-size="10" font-weight="bold" letter-spacing="1">FEATURES</text>

  <rect x="20" y="118" width="130" height="34" rx="8" fill="#1F2E4D" stroke="#2A3656" stroke-width="1"/>
  <text x="32" y="139" fill="#FFFFFF" font-size="11" font-weight="bold">Guided Onboarding</text>

  <rect x="20" y="160" width="130" height="34" rx="8" fill="#1F2E4D" stroke="#2A3656" stroke-width="1"/>
  <text x="32" y="181" fill="#FFFFFF" font-size="11" font-weight="bold">Core Workflow</text>

  <rect x="20" y="202" width="130" height="34" rx="8" fill="#1F2E4D" stroke="#2A3656" stroke-width="1"/>
  <text x="32" y="223" fill="#FFFFFF" font-size="11" font-weight="bold">Team Collaboration</text>

  <rect x="20" y="244" width="130" height="34" rx="8" fill="#1F2E4D" stroke="#2A3656" stroke-width="1"/>
  <text x="32" y="265" fill="#FFFFFF" font-size="11" font-weight="bold">Custom Reporting</text>

  <rect x="20" y="286" width="130" height="34" rx="8" fill="#1F2E4D" stroke="#2A3656" stroke-width="1"/>
  <text x="32" y="307" fill="#FFFFFF" font-size="11" font-weight="bold">API Integrations</text>

  <rect x="20" y="328" width="130" height="34" rx="8" fill="#1F2E4D" stroke="#2A3656" stroke-width="1"/>
  <text x="32" y="349" fill="#FFFFFF" font-size="11" font-weight="bold">Analytics Dashboard</text>

  <rect x="20" y="370" width="130" height="34" rx="8" fill="#1F2E4D" stroke="#2A3656" stroke-width="1"/>
  <text x="32" y="391" fill="#FFFFFF" font-size="11" font-weight="bold">White-label</text>

  <!-- CENTRE: TRADE-OFF ROUNDS -->
  <!-- ROUND 1 -->
  <text x="195" y="108" fill="#ED3694" font-size="10" font-weight="bold" letter-spacing="1">ROUND 1</text>

  <rect x="180" y="118" width="155" height="70" rx="8" fill="#1F2E4D" stroke="#ED3694" stroke-width="2"/>
  <text x="192" y="135" fill="#ED3694" font-size="10" font-weight="bold">Package A</text>
  <text x="192" y="149" fill="#B8BCC8" font-size="10">Onboarding + Core + Team</text>
  <text x="192" y="162" fill="#7A7F8E" font-size="9">$49/mo</text>
  <text x="302" y="178" fill="#ED3694" font-size="10" font-weight="bold">WINNER</text>

  <rect x="245" y="192" width="24" height="16" rx="8" fill="#ED3694"/>
  <text x="250" y="203" fill="#FFFFFF" font-size="9" font-weight="bold">VS</text>

  <rect x="180" y="212" width="155" height="70" rx="8" fill="#1F2E4D" stroke="#2A3656" stroke-width="1" opacity="0.5"/>
  <text x="192" y="229" fill="#B8BCC8" font-size="10">Package B</text>
  <text x="192" y="243" fill="#B8BCC8" font-size="10">Analytics + API + Reporting</text>
  <text x="192" y="256" fill="#7A7F8E" font-size="9">$39/mo</text>

  <!-- ROUND 2 -->
  <text x="195" y="308" fill="#ED3694" font-size="10" font-weight="bold" letter-spacing="1">ROUND 2</text>

  <rect x="180" y="318" width="155" height="70" rx="8" fill="#1F2E4D" stroke="#ED3694" stroke-width="2"/>
  <text x="192" y="335" fill="#ED3694" font-size="10" font-weight="bold">Package A</text>
  <text x="192" y="349" fill="#B8BCC8" font-size="10">Core + Onboarding + API</text>
  <text x="192" y="362" fill="#7A7F8E" font-size="9">$59/mo</text>
  <text x="302" y="378" fill="#ED3694" font-size="10" font-weight="bold">WINNER</text>

  <rect x="245" y="392" width="24" height="16" rx="8" fill="#ED3694"/>
  <text x="250" y="403" fill="#FFFFFF" font-size="9" font-weight="bold">VS</text>

  <rect x="180" y="412" width="155" height="70" rx="8" fill="#1F2E4D" stroke="#2A3656" stroke-width="1" opacity="0.5"/>
  <text x="192" y="429" fill="#B8BCC8" font-size="10">Package B</text>
  <text x="192" y="443" fill="#B8BCC8" font-size="10">Analytics + Team + White-label</text>
  <text x="192" y="456" fill="#7A7F8E" font-size="9">$45/mo</text>

  <!-- ROUND 3 -->
  <text x="195" y="508" fill="#ED3694" font-size="10" font-weight="bold" letter-spacing="1">ROUND 3</text>

  <rect x="180" y="518" width="155" height="70" rx="8" fill="#1F2E4D" stroke="#ED3694" stroke-width="2"/>
  <text x="192" y="535" fill="#ED3694" font-size="10" font-weight="bold">Package A</text>
  <text x="192" y="549" fill="#B8BCC8" font-size="10">Team + Onboarding + Core</text>
  <text x="192" y="562" fill="#7A7F8E" font-size="9">$69/mo</text>
  <text x="302" y="578" fill="#ED3694" font-size="10" font-weight="bold">WINNER</text>

  <rect x="245" y="592" width="24" height="16" rx="8" fill="#ED3694"/>
  <text x="250" y="603" fill="#FFFFFF" font-size="9" font-weight="bold">VS</text>

  <rect x="180" y="612" width="155" height="52" rx="8" fill="#1F2E4D" stroke="#2A3656" stroke-width="1" opacity="0.5"/>
  <text x="192" y="629" fill="#B8BCC8" font-size="10">Package B</text>
  <text x="192" y="643" fill="#B8BCC8" font-size="10">Reporting + Analytics + API</text>

  <!-- RIGHT: VALUE STACK -->
  <text x="400" y="108" fill="#ED3694" font-size="10" font-weight="bold" letter-spacing="1">VALUE STACK</text>

  <!-- Rank 1 -->
  <rect x="390" y="118" width="210" height="38" rx="8" fill="#1F2E4D" stroke="#2A3656" stroke-width="1"/>
  <text x="402" y="136" fill="#ED3694" font-size="10" font-weight="bold">1</text>
  <text x="418" y="136" fill="#FFFFFF" font-size="11" font-weight="bold">Guided Onboarding</text>
  <text x="540" y="136" fill="#7A7F8E" font-size="9">6/6</text>
  <rect x="562" y="126" width="30" height="16" rx="4" fill="rgba(237,54,148,0.15)"/>
  <text x="577" y="137" fill="#ED3694" font-size="8" font-weight="bold" text-anchor="middle">MUST</text>

  <!-- Rank 2 -->
  <rect x="390" y="164" width="210" height="38" rx="8" fill="#1F2E4D" stroke="#2A3656" stroke-width="1"/>
  <text x="402" y="182" fill="#ED3694" font-size="10" font-weight="bold">2</text>
  <text x="418" y="182" fill="#FFFFFF" font-size="11" font-weight="bold">Core Workflow</text>
  <text x="540" y="182" fill="#7A7F8E" font-size="9">5/6</text>
  <rect x="562" y="172" width="30" height="16" rx="4" fill="rgba(237,54,148,0.15)"/>
  <text x="577" y="183" fill="#ED3694" font-size="8" font-weight="bold" text-anchor="middle">MUST</text>

  <!-- Rank 3 -->
  <rect x="390" y="210" width="210" height="38" rx="8" fill="#1F2E4D" stroke="#2A3656" stroke-width="1"/>
  <text x="402" y="228" fill="#ED3694" font-size="10" font-weight="bold">3</text>
  <text x="418" y="228" fill="#FFFFFF" font-size="11" font-weight="bold">Team Collaboration</text>
  <text x="540" y="228" fill="#7A7F8E" font-size="9">4/6</text>
  <rect x="562" y="218" width="30" height="16" rx="4" fill="rgba(237,54,148,0.15)"/>
  <text x="577" y="229" fill="#ED3694" font-size="8" font-weight="bold" text-anchor="middle">MUST</text>

  <!-- Rank 4 -->
  <rect x="390" y="256" width="210" height="38" rx="8" fill="#1F2E4D" stroke="#2A3656" stroke-width="1"/>
  <text x="402" y="274" fill="#ED3694" font-size="10" font-weight="bold">4</text>
  <text x="418" y="274" fill="#FFFFFF" font-size="11" font-weight="bold">Custom Reporting</text>
  <text x="540" y="274" fill="#7A7F8E" font-size="9">2/6</text>
  <rect x="562" y="264" width="30" height="16" rx="4" fill="rgba(237,54,148,0.1)"/>
  <text x="577" y="275" fill="#ED3694" font-size="8" font-weight="bold" text-anchor="middle" opacity="0.6">NICE</text>

  <!-- Rank 5 -->
  <rect x="390" y="302" width="210" height="38" rx="8" fill="#1F2E4D" stroke="#2A3656" stroke-width="1"/>
  <text x="402" y="320" fill="#ED3694" font-size="10" font-weight="bold">5</text>
  <text x="418" y="320" fill="#FFFFFF" font-size="11" font-weight="bold">API Integrations</text>
  <text x="540" y="320" fill="#7A7F8E" font-size="9">2/6</text>
  <rect x="562" y="310" width="30" height="16" rx="4" fill="rgba(237,54,148,0.1)"/>
  <text x="577" y="321" fill="#ED3694" font-size="8" font-weight="bold" text-anchor="middle" opacity="0.6">NICE</text>

  <!-- Rank 6 -->
  <rect x="390" y="348" width="210" height="38" rx="8" fill="#1F2E4D" stroke="#2A3656" stroke-width="1"/>
  <text x="402" y="366" fill="#ED3694" font-size="10" font-weight="bold">6</text>
  <text x="418" y="366" fill="#FFFFFF" font-size="11" font-weight="bold">Analytics Dashboard</text>
  <text x="540" y="366" fill="#7A7F8E" font-size="9">1/6</text>
  <rect x="562" y="356" width="30" height="16" rx="4" fill="rgba(237,54,148,0.06)"/>
  <text x="577" y="367" fill="#ED3694" font-size="8" font-weight="bold" text-anchor="middle" opacity="0.3">EXP</text>

  <!-- Rank 7 -->
  <rect x="390" y="394" width="210" height="38" rx="8" fill="#1F2E4D" stroke="#2A3656" stroke-width="1"/>
  <text x="402" y="412" fill="#ED3694" font-size="10" font-weight="bold">7</text>
  <text x="418" y="412" fill="#FFFFFF" font-size="11" font-weight="bold">White-label</text>
  <text x="540" y="412" fill="#7A7F8E" font-size="9">0/6</text>
  <rect x="562" y="402" width="30" height="16" rx="4" fill="rgba(237,54,148,0.06)"/>
  <text x="577" y="413" fill="#ED3694" font-size="8" font-weight="bold" text-anchor="middle" opacity="0.3">EXP</text>

  <!-- BOTTOM-RIGHT: MVO CARD -->
  <rect x="390" y="458" width="390" height="120" rx="8" fill="#1F2E4D" stroke="#ED3694" stroke-width="2"/>
  <rect x="390" y="458" width="3" height="120" fill="#ED3694"/>

  <text x="416" y="483" fill="#ED3694" font-size="10" font-weight="bold" letter-spacing="1">MINIMUM VIABLE OFFER</text>
  <text x="416" y="506" fill="#FFFFFF" font-size="14" font-weight="bold">Core + Onboarding + Team</text>
  <text x="416" y="530" fill="#FFFFFF" font-size="22" font-weight="bold">$49<tspan font-size="12" fill="#7A7F8E">/month</tspan></text>

  <text x="416" y="550" fill="#B8BCC8" font-size="10">Simplest version someone would still pay for.</text>
  <text x="416" y="566" fill="#7A7F8E" font-size="9">3 must-have features. 4 features cut.</text>
</svg>